<svg version="1.1" id="logo" xmlns="http://www.w3.org/2000/svg" xmlns:xlink="http://www.w3.org/1999/xlink" x="0px" y="0px"
	 width="50px" height="50px" viewBox="0 0 39.995 39.995" enable-background="new 0 0 39.995 39.995" xml:space="preserve">
  <g>
  	<g>
  		<path fill="#17D676" d="M0,0v39.995h39.995V0H0z M38,37.984H2V2h36V37.984z"/>
  	</g>
  	<g>
  		<polygon fill="#424242" points="17,18.997 10,18.997 10,13 8,13 8,19 10,19 10,20.997 17,20.997 17,27 19,27 19,13 17,13 		"/>
  		<polygon fill="#424242" points="30,20.984 30,19 23,19 23,13 21,13 21,27 23,27 23,21 30,21 30,27 32,27 32,20.984 		"/>
  	</g>
  </g>
</svg>